<?xml version="1.0" standalone="no"?>
<!DOCTYPE svg PUBLIC "-//W3C//DTD SVG 1.1//EN" "http://www.w3.org/Graphics/SVG/1.1/DTD/svg11.dtd">

<svg width="135" height="50" viewBox="0 0 135 50" preserveAspectRatio="none" 
  xmlns="http://www.w3.org/2000/svg"
  xmlns:xlink="http://www.w3.org/1999/xlink">


<polyline points="0.0, 6.671699322473033 0.8083832335329342, 8.257779883491544 1.6167664670658684, 7.732133525179369 2.4251497005988023, 10.646222289946955 3.2335329341317367, 12.77074650634942 4.041916167664671, 12.677254699299581 4.850299401197605, 12.943494942271947 5.658682634730539, 16.121281932607662 6.467065868263473, 12.11764457452642 7.275449101796408, 5.587554214488465 8.083832335329342, 6.515085120717659 8.892215568862277, 8.160127393029716 9.70059880239521, 7.852328197290354 10.508982035928144, 12.174234052364591 11.317365269461078, 14.02401832396686 12.125748502994012, 12.03678591213311 12.934131736526947, 13.350506367580566 13.74251497005988, 8.951559804429587 14.550898203592816, 8.429496509843274 15.359281437125748, 13.323577786980659 16.167664670658684, 13.872894597225812 16.976047904191617, 15.721458254854262 17.784431137724553, 8.290107254243061 18.592814371257486, 5.487657543199878 19.40119760479042, 2.7223529750804945 20.20958083832335, 4.450490545173241 21.017964071856287, 3.349734599147524 21.82634730538922, 2.2543514664589552 22.634730538922156, 0.0 23.443113772455092, 0.00044627601681646094 24.251497005988025, 0.7158501298225796 25.059880239520957, 2.124414701210696 25.868263473053894, 1.288404585714717 26.676646706586826, 3.63299426097169 27.48502994011976, 5.360183627326911 28.29341317365269, 4.764124620012512 29.10179640718563, 5.5387638333921485 29.910179640718564, 6.395245076431963 30.718562874251496, 9.323697635852948 31.526946107784433, 9.729138781795724 32.33532934131737, 11.675613547188908 33.1437125748503, 10.487343855108868 33.952095808383234, 10.919669465990859 34.76047904191616, 8.752629210872318 35.568862275449106, 8.89356120720071 36.377245508982035, 7.007674717850103 37.18562874251497, 8.802230319678845 37.9940119760479, 10.25368357919772 38.80239520958084, 10.66157907918814 39.61077844311377, 10.280981437410746 40.4191616766467, 10.861595223544093 41.227544910179645, 11.003512713158813 42.035928143712574, 10.98415112545392 42.84431137724551, 9.388014634736152 43.65269461077844, 8.773328244841178 44.461077844311376, 9.111232610230664 45.26946107784431, 9.58402555419793 46.07784431137725, 6.308584087444133 46.886227544910184, 8.005244746392847 47.69461077844311, 9.1877083812446 48.50299401197605, 8.669221678580124 49.31137724550898, 8.131073141420057 50.119760479041915, 8.539999001976959 50.928143712574844, 6.907915131045426 51.73652694610779, 8.245377259034848 52.54491017964072, 9.989420444925305 53.35329341317365, 8.811641982153635 54.16167664670659, 8.424095511156658 54.97005988023952, 9.012925227315966 55.778443113772454, 6.910162818106853 56.58682634730538, 7.5325438492497785 57.395209580838326, 7.570113138239616 58.20359281437126, 7.369328043447851 59.01197604790419, 6.3795634689706215 59.82035928143713, 7.037935268142539 60.62874251497006, 9.182182615384079 61.43712574850299, 8.304959927875709 62.24550898203593, 7.345832320259153 63.053892215568865, 8.309926868682725 63.862275449101794, 8.723282882559353 64.67065868263474, 9.094568713096042 65.47904191616766, 9.185860853506714 66.2874251497006, 9.087066946338739 67.09580838323353, 8.795455305040084 67.90419161676647, 7.422863777724209 68.7125748502994, 7.4268201775812805 69.52095808383233, 8.282074369332904 70.32934131736526, 11.459210897388422 71.13772455089821, 13.290565342743632 71.94610778443113, 19.41693436292671 72.75449101796407, 22.994145464499553 73.562874251497, 24.220733077489985 74.37125748502994, 25.498882400513427 75.17964071856287, 22.079257763180237 75.9880239520958, 26.2991266205158 76.79640718562875, 29.777694616382917 77.60479041916167, 38.351246591895496 78.41317365269461, 42.407546828633805 79.22155688622755, 46.2554046014564 80.02994011976048, 42.090010027226846 80.8383233532934, 50.0 81.64670658682634, 44.56143698784854 82.45508982035929, 36.18150347756379 83.26347305389221, 36.2422500522211 84.07185628742515, 27.819801021768736 84.88023952095809, 27.55317524697663 85.68862275449102, 30.601047077321102 86.49700598802396, 31.78783424943249 87.30538922155688, 34.405503817613535 88.11377245508983, 32.282258517804856 88.92215568862275, 21.92620148565703 89.73053892215569, 19.479731671316095 90.53892215568862, 18.327721395655537 91.34730538922156, 16.029926616157752 92.1556886227545, 17.680348673109265 92.96407185628742, 19.711349404262663 93.77245508982037, 15.426954071466342 94.58083832335329, 12.821486342949632 95.38922155688623, 8.618451388892701 96.19760479041915, 10.327108517118349 97.0059880239521, 10.76534643714464 97.81437125748504, 10.30986733664524 98.62275449101796, 10.58369882861426 99.43113772455091, 9.966552201712094 100.23952095808383, 8.889890061314109 101.04790419161677, 6.768632049131224 101.85628742514969, 3.404577536574792 102.66467065868264, 5.543441007345554 103.47305389221557, 3.4345971758922746 104.2814371257485, 2.083007488838123 105.08982035928145, 2.244655450170521 105.89820359281437, 5.124203652930113 106.7065868263473, 7.116194972978715 107.51497005988023, 6.878331795036038 108.32335329341318, 12.791243448265874 109.13173652694611, 17.60233177448236 109.94011976047904, 14.262780785302336 110.74850299401199, 15.28477241032506 111.55688622754491, 12.746912464845755 112.36526946107784, 14.461561221313032 113.17365269461077, 14.950792512478884 113.98203592814372, 12.816122509887093 114.79041916167665, 12.029101193565424 115.59880239520957, 9.28821633747886 116.40718562874252, 8.926298542668793 117.21556886227545, 10.203495585967506 118.02395209580838, 10.851281430469962 118.83233532934132, 13.066207909321777 119.64071856287426, 12.367203256036461 120.44910179640719, 12.77142350171307 121.25748502994011, 14.958926123751755 122.06586826347306, 15.972975786556534 122.87425149700599, 15.291514377654716 123.68263473053892, 14.975739119164908 124.49101796407186, 17.53746541259543 125.2994011976048, 17.864916751987018 126.10778443113773, 15.561164282767182 126.91616766467065, 13.026342269162166 127.72455089820359, 11.023949473871644 128.5329341317365, 11.923212695813385 129.34131736526948, 12.966541951283014 130.1497005988024, 14.474871542399628 130.95808383233532, 12.82800588532054 131.76646706586826, 11.469388238827074 132.5748502994012, 9.778056210471396 133.38323353293413, 8.723032513774594 134.19161676646706, 7.80157442008879 135.0, 10.315969873058638" fill="none" stroke="#ff3a33" stroke-width="1.25"/>

</svg>