<?xml version="1.0" standalone="no"?>
<!DOCTYPE svg PUBLIC "-//W3C//DTD SVG 1.1//EN" "http://www.w3.org/Graphics/SVG/1.1/DTD/svg11.dtd">

<svg width="135" height="50" viewBox="0 0 135 50" preserveAspectRatio="none" 
  xmlns="http://www.w3.org/2000/svg"
  xmlns:xlink="http://www.w3.org/1999/xlink">


<polyline points="0.0, 13.398343223561133 0.8083832335329342, 21.426411046086347 1.6167664670658684, 15.903815831166712 2.4251497005988023, 28.790148945351884 3.2335329341317367, 28.429123973711125 4.041916167664671, 39.53278215338764 4.850299401197605, 47.476141423252166 5.658682634730539, 32.398040248650894 6.467065868263473, 31.356534844438684 7.275449101796408, 22.72924917245504 8.083832335329342, 11.659323939128473 8.892215568862277, 13.666783788698961 9.70059880239521, 35.13367985897035 10.508982035928144, 15.8847421166595 11.317365269461078, 27.709624686331523 12.125748502994012, 19.97453948455414 12.934131736526947, 30.10696670530102 13.74251497005988, 29.124118287834406 14.550898203592816, 42.67812922764055 15.359281437125748, 42.573768921968636 16.167664670658684, 48.37483926014176 16.976047904191617, 28.25653738756449 17.784431137724553, 27.76115154290889 18.592814371257486, 29.376773876702057 19.40119760479042, 27.572813333831842 20.20958083832335, 32.5671410227032 21.017964071856287, 26.989747788126873 21.82634730538922, 31.059690465383273 22.634730538922156, 32.21043917603797 23.443113772455092, 30.261719565496552 24.251497005988025, 39.16338343085569 25.059880239520957, 30.870988645579047 25.868263473053894, 39.43217324057757 26.676646706586826, 41.85705740217537 27.48502994011976, 29.519432695701564 28.29341317365269, 32.795204981118005 29.10179640718563, 36.79305411970447 29.910179640718564, 49.025656049795685 30.718562874251496, 48.68141001673106 31.526946107784433, 45.41302908946797 32.33532934131737, 32.22386102564592 33.1437125748503, 33.23977373741184 33.952095808383234, 22.32697485401215 34.76047904191616, 31.021121473929007 35.568862275449106, 23.91042420352148 36.377245508982035, 27.37328074244679 37.18562874251497, 13.413684470784437 37.9940119760479, 24.8680492532255 38.80239520958084, 20.890995238265013 39.61077844311377, 28.764991533801886 40.4191616766467, 24.192960342129503 41.227544910179645, 27.810722767572855 42.035928143712574, 29.40969160345754 42.84431137724551, 30.67171263893791 43.65269461077844, 26.102066607758935 44.461077844311376, 22.44892458038277 45.26946107784431, 30.15205698701343 46.07784431137725, 32.24832107949659 46.886227544910184, 29.888496518552582 47.69461077844311, 30.0819340627108 48.50299401197605, 0.0 49.31137724550898, 28.37174930391278 50.119760479041915, 11.557036573479518 50.928143712574844, 31.63906543202647 51.73652694610779, 48.04527935275991 52.54491017964072, 32.60164573261953 53.35329341317365, 23.980239575151682 54.16167664670659, 48.6442549784466 54.97005988023952, 36.58834136299679 55.778443113772454, 31.308200945747156 56.58682634730538, 35.02572662787101 57.395209580838326, 36.74550012609903 58.20359281437126, 31.17660966463082 59.01197604790419, 48.23986640439447 59.82035928143713, 37.269595311508304 60.62874251497006, 39.07935693519035 61.43712574850299, 33.51462283558349 62.24550898203593, 37.388685256410106 63.053892215568865, 31.79423980309659 63.862275449101794, 47.90246561730282 64.67065868263474, 30.160633294117783 65.47904191616766, 35.90511000679355 66.2874251497006, 34.20303346333925 67.09580838323353, 39.03096637010603 67.90419161676647, 30.907024816546286 68.7125748502994, 31.87105104201762 69.52095808383233, 31.114997474426143 70.32934131736526, 16.067679079484424 71.13772455089821, 27.5644050953715 71.94610778443113, 29.313873781076584 72.75449101796407, 37.58960533526272 73.562874251497, 31.316622752685934 74.37125748502994, 24.646778162649756 75.17964071856287, 16.23621032785102 75.9880239520958, 35.149131048713755 76.79640718562875, 35.59671352892152 77.60479041916167, 47.187704758125456 78.41317365269461, 29.865162251794796 79.22155688622755, 18.980284382075865 80.02994011976048, 26.3986247556599 80.8383233532934, 19.956394389896488 81.64670658682634, 31.082773751610127 82.45508982035929, 30.14494979491197 83.26347305389221, 30.90083965249261 84.07185628742515, 31.742483922543705 84.88023952095809, 35.25998646645438 85.68862275449102, 48.5395306860518 86.49700598802396, 30.57073630707144 87.30538922155688, 42.31136233445028 88.11377245508983, 25.585849588572774 88.92215568862275, 14.35738131564811 89.73053892215569, 41.69748897923765 90.53892215568862, 30.293591317321784 91.34730538922156, 13.163987532336337 92.1556886227545, 12.909516976104374 92.96407185628742, 13.021920889226282 93.77245508982037, 22.64348358845568 94.58083832335329, 30.953207678260995 95.38922155688623, 18.197978631172276 96.19760479041915, 23.65313510563512 97.0059880239521, 31.80736856316651 97.81437125748504, 24.93929450956421 98.62275449101796, 40.17302621890237 99.43113772455091, 37.75446319400568 100.23952095808383, 42.678508460597364 101.04790419161677, 40.53591243129734 101.85628742514969, 45.66288090597268 102.66467065868264, 39.57632138442707 103.47305389221557, 21.63884203727812 104.2814371257485, 34.85343860377078 105.08982035928145, 12.880369009202925 105.89820359281437, 40.97288611023578 106.7065868263473, 30.65687914415296 107.51497005988023, 13.81272519337568 108.32335329341318, 43.666120375462945 109.13173652694611, 48.09987186456187 109.94011976047904, 50.0 110.74850299401199, 47.7063206132046 111.55688622754491, 29.978609744895763 112.36526946107784, 27.027693846640368 113.17365269461077, 20.757695717542102 113.98203592814372, 20.798878031215295 114.79041916167665, 24.870440104128058 115.59880239520957, 30.600811824425605 116.40718562874252, 11.787533506945982 117.21556886227545, 20.58695484944528 118.02395209580838, 29.829591798052945 118.83233532934132, 23.737868629285792 119.64071856287426, 12.082545404624256 120.44910179640719, 34.70293076226451 121.25748502994011, 37.75306929365931 122.06586826347306, 48.3606482105821 122.87425149700599, 34.90985312226252 123.68263473053892, 30.180051740972004 124.49101796407186, 26.477459798487946 125.2994011976048, 27.30841124779101 126.10778443113773, 12.734535795414287 126.91616766467065, 28.477270522600968 127.72455089820359, 47.74405930623727 128.5329341317365, 47.907005081533285 129.34131736526948, 31.455917388138893 130.1497005988024, 48.5406650550188 130.95808383233532, 26.867352533302768 131.76646706586826, 31.533485196019434 132.5748502994012, 31.764521052321587 133.38323353293413, 31.71895587388434 134.19161676646706, 32.45857218941562 135.0, 16.125625100930264" fill="none" stroke="#ff3a33" stroke-width="1.25"/>

</svg>