<?xml version="1.0" standalone="no"?>
<!DOCTYPE svg PUBLIC "-//W3C//DTD SVG 1.1//EN" "http://www.w3.org/Graphics/SVG/1.1/DTD/svg11.dtd">

<svg width="135" height="50" viewBox="0 0 135 50" preserveAspectRatio="none" 
  xmlns="http://www.w3.org/2000/svg"
  xmlns:xlink="http://www.w3.org/1999/xlink">


<polyline points="0.0, 1.66392969260504 0.8083832335329342, 2.03215342657421 1.6167664670658684, 3.695558528612978 2.4251497005988023, 1.6687945134474407 3.2335329341317367, 1.855143512201977 4.041916167664671, 0.2513418141549901 4.850299401197605, 0.0 5.658682634730539, 3.443134551717054 6.467065868263473, 2.7247270844537317 7.275449101796408, 2.6246085607857577 8.083832335329342, 4.704928276882185 8.892215568862277, 6.88905333653387 9.70059880239521, 6.947352459964246 10.508982035928144, 7.905920988590178 11.317365269461078, 10.900364966855584 12.125748502994012, 11.088643447896782 12.934131736526947, 10.595867575155985 13.74251497005988, 11.152677864681015 14.550898203592816, 8.739078531581704 15.359281437125748, 10.456280751253754 16.167664670658684, 10.32695130810672 16.976047904191617, 12.167817173815248 17.784431137724553, 13.593140625744724 18.592814371257486, 14.574275158524449 19.40119760479042, 12.904444093713904 20.20958083832335, 14.745009400640614 21.017964071856287, 11.808313288872299 21.82634730538922, 8.853627162215853 22.634730538922156, 9.896025338858681 23.443113772455092, 11.066858584005553 24.251497005988025, 10.182520196134304 25.059880239520957, 13.514053796550396 25.868263473053894, 16.479718180283587 26.676646706586826, 14.728707200809962 27.48502994011976, 20.209873790615077 28.29341317365269, 12.93305626182275 29.10179640718563, 13.83682664549584 29.910179640718564, 18.593062561683624 30.718562874251496, 19.53739341108454 31.526946107784433, 20.427905670044723 32.33532934131737, 16.988523996102295 33.1437125748503, 10.535226075608175 33.952095808383234, 9.54384198992372 34.76047904191616, 9.233405310432728 35.568862275449106, 10.796715551504743 36.377245508982035, 9.656777831068075 37.18562874251497, 7.419828805015233 37.9940119760479, 7.534964514827822 38.80239520958084, 8.441241945034129 39.61077844311377, 8.938489657403132 40.4191616766467, 8.305597364876796 41.227544910179645, 9.268651792457707 42.035928143712574, 9.29428770463676 42.84431137724551, 8.446697908728373 43.65269461077844, 9.006857072427968 44.461077844311376, 10.18684916441614 45.26946107784431, 14.697002635912593 46.07784431137725, 19.26103863739799 46.886227544910184, 19.47016041617758 47.69461077844311, 19.45949572631488 48.50299401197605, 22.66113078987375 49.31137724550898, 20.547054187364544 50.119760479041915, 18.223388308934222 50.928143712574844, 17.140405358446763 51.73652694610779, 19.539412993825 52.54491017964072, 19.833449836913147 53.35329341317365, 20.64973646438261 54.16167664670659, 22.126957239770174 54.97005988023952, 21.455265427254556 55.778443113772454, 22.434225360076784 56.58682634730538, 21.675169499769613 57.395209580838326, 19.76053135344232 58.20359281437126, 20.77386369208686 59.01197604790419, 20.782073219861296 59.82035928143713, 21.326188363658336 60.62874251497006, 20.052994772149457 61.43712574850299, 21.29172078285686 62.24550898203593, 20.977211229101467 63.053892215568865, 21.058023140579596 63.862275449101794, 21.32491859236471 64.67065868263474, 21.398996150095858 65.47904191616766, 20.828310162456745 66.2874251497006, 20.806927130625137 67.09580838323353, 22.532252526177913 67.90419161676647, 20.37516745559876 68.7125748502994, 21.78777643375167 69.52095808383233, 21.63414643088547 70.32934131736526, 20.184334725305124 71.13772455089821, 18.790088762429328 71.94610778443113, 20.262171265941433 72.75449101796407, 20.069936689696945 73.562874251497, 20.73458984920889 74.37125748502994, 21.57385009078682 75.17964071856287, 22.19546765060675 75.9880239520958, 21.705335052403864 76.79640718562875, 21.306549477394817 77.60479041916167, 21.500975772574012 78.41317365269461, 21.924713472319272 79.22155688622755, 22.473902288878598 80.02994011976048, 22.71152309660997 80.8383233532934, 23.030082595095223 81.64670658682634, 22.08509605209345 82.45508982035929, 21.540759768808005 83.26347305389221, 23.158602122510487 84.07185628742515, 24.846163702591237 84.88023952095809, 28.827504535184474 85.68862275449102, 28.186182083175858 86.49700598802396, 34.487770401215315 87.30538922155688, 36.96337231619687 88.11377245508983, 39.872495466852456 88.92215568862275, 41.71287979699461 89.73053892215569, 38.58427660364572 90.53892215568862, 42.2378703972263 91.34730538922156, 42.69474536904886 92.1556886227545, 46.308638218384964 92.96407185628742, 47.17459864077501 93.77245508982037, 49.83368522212588 94.58083832335329, 46.56364030793276 95.38922155688623, 50.0 96.19760479041915, 47.317063224041796 97.0059880239521, 42.19193777549394 97.81437125748504, 41.32969618145631 98.62275449101796, 36.451831152149126 99.43113772455091, 37.12095488062262 100.23952095808383, 38.95138759236183 101.04790419161677, 41.219051586645044 101.85628742514969, 42.90726943178775 102.66467065868264, 39.556727697766206 103.47305389221557, 30.11910306038158 104.2814371257485, 30.390138756957707 105.08982035928145, 29.406008932378352 105.89820359281437, 30.10313206667128 106.7065868263473, 33.165445010487225 107.51497005988023, 34.120897030906185 108.32335329341318, 31.014665977869328 109.13173652694611, 31.915807208235236 109.94011976047904, 30.969363215597223 110.74850299401199, 29.561714410000583 111.55688622754491, 32.130173850483764 112.36526946107784, 32.60125621212113 113.17365269461077, 33.14411291675442 113.98203592814372, 33.836074050319574 114.79041916167665, 34.80864407727582 115.59880239520957, 35.544931419957635 116.40718562874252, 37.02674478943676 117.21556886227545, 37.267989443833315 118.02395209580838, 38.31171896353972 118.83233532934132, 37.02980754114692 119.64071856287426, 39.570414102917816 120.44910179640719, 39.30876737306942 121.25748502994011, 41.79590790239153 122.06586826347306, 41.85473819261271 122.87425149700599, 43.3073371175565 123.68263473053892, 45.05997897631811 124.49101796407186, 44.66039569220607 125.2994011976048, 44.775942995742575 126.10778443113773, 44.09103176127683 126.91616766467065, 41.91281758007976 127.72455089820359, 42.801605923317524 128.5329341317365, 42.24996288764254 129.34131736526948, 41.55804903317337 130.1497005988024, 40.88878610605226 130.95808383233532, 39.2963131603927 131.76646706586826, 39.11226701007555 132.5748502994012, 40.34349504722884 133.38323353293413, 42.47032153779304 134.19161676646706, 40.87368252577546 135.0, 42.03647091152533" fill="none" stroke="#ff3a33" stroke-width="1.25"/>

</svg>