<?xml version="1.0" standalone="no"?>
<!DOCTYPE svg PUBLIC "-//W3C//DTD SVG 1.1//EN" "http://www.w3.org/Graphics/SVG/1.1/DTD/svg11.dtd">

<svg width="135" height="50" viewBox="0 0 135 50" preserveAspectRatio="none" 
  xmlns="http://www.w3.org/2000/svg"
  xmlns:xlink="http://www.w3.org/1999/xlink">


<polyline points="0.0, 10.272872206697013 0.8132530120481928, 12.337252790993041 1.6265060240963856, 13.515001957949046 2.439759036144578, 15.640503866930471 3.253012048192771, 17.107527641431954 4.066265060240964, 17.77518383753421 4.879518072289156, 18.16397758549722 5.692771084337349, 19.400688596183297 6.506024096385542, 21.508188922956943 7.319277108433735, 22.0606241888316 8.132530120481928, 24.60070666319493 8.94578313253012, 24.569647136468173 9.759036144578312, 24.508928178826686 10.572289156626507, 25.05212614750928 11.385542168674698, 25.633254645909908 12.198795180722891, 26.955194737474258 13.012048192771084, 27.195508513631694 13.825301204819276, 27.60974436788611 14.63855421686747, 26.0694906620553 15.451807228915662, 25.806811233696887 16.265060240963855, 23.86685360572491 17.07831325301205, 23.391515558836495 17.89156626506024, 23.079353606157056 18.704819277108435, 23.893428133606598 19.518072289156624, 24.479016149977635 20.33132530120482, 26.28229094984943 21.144578313253014, 25.661762386379376 21.957831325301203, 25.34296064712041 22.771084337349397, 25.204180254736446 23.58433734939759, 24.797452702544167 24.397590361445783, 23.21692019331816 25.210843373493976, 18.129314390879454 26.02409638554217, 15.684920341042396 26.837349397590362, 14.407222198641417 27.65060240963855, 14.121940490833559 28.46385542168675, 14.562746561814985 29.27710843373494, 8.783207894247175 30.09036144578313, 5.863625264063734 30.903614457831324, 4.463493025234871 31.71686746987952, 4.194160829584245 32.53012048192771, 4.2306100587659685 33.3433734939759, 4.158079347085015 34.1566265060241, 5.1049178239385435 34.96987951807229, 3.85972800145104 35.78313253012048, 3.9743543250561126 36.596385542168676, 3.419932191491648 37.40963855421687, 2.825774820120539 38.22289156626506, 3.0221730047520494 39.03614457831325, 0.9741324257476631 39.84939759036145, 1.1147981641530678 40.66265060240964, 1.7564932300442215 41.47590361445783, 2.888923733038574 42.28915662650603, 3.9423651801122848 43.102409638554214, 6.008789799166455 43.91566265060241, 11.62631765885775 44.72891566265061, 14.880395903965502 45.54216867469879, 15.752549771253863 46.355421686746986, 15.789402715873175 47.16867469879518, 16.633863227549888 47.98192771084337, 23.472376789896597 48.795180722891565, 26.163667843069728 49.60843373493976, 27.732278565687608 50.42168674698795, 28.130152368033674 51.234939759036145, 28.410278775218366 52.04819277108434, 28.723380630483703 52.86144578313253, 29.390380930053666 53.674698795180724, 30.50074160601569 54.48795180722892, 31.59622676586023 55.3012048192771, 32.73746186933387 56.1144578313253, 33.7399285773292 56.9277108433735, 34.37219302749405 57.74096385542168, 35.13759917245021 58.55421686746988, 35.85236638704134 59.36746987951807, 36.174338850259744 60.18072289156626, 36.3855108163065 60.99397590361446, 36.92315998518885 61.80722891566265, 37.588544931893026 62.62048192771084, 39.16679897186265 63.43373493975904, 40.160168280950145 64.24698795180723, 40.874884510308576 65.06024096385542, 41.52313587120642 65.87349397590361, 42.326919275373704 66.6867469879518, 43.03117236530791 67.5, 44.3323079144145 68.3132530120482, 45.32426233000631 69.12650602409639, 45.78551492720835 69.93975903614458, 46.50805080908706 70.75301204819277, 47.118635579863025 71.56626506024097, 47.58432078647591 72.37951807228916, 47.717931362462195 73.19277108433735, 47.866049995517265 74.00602409638554, 47.63236784775347 74.81927710843374, 47.695988877261684 75.63253012048192, 47.9434714500088 76.44578313253012, 48.08079511768485 77.25903614457832, 48.182828552380194 78.0722891566265, 47.90716954866384 78.8855421686747, 48.06426990789849 79.6987951807229, 48.15388730236781 80.51204819277108, 48.156654239741655 81.32530120481928, 47.907969273737606 82.13855421686748, 47.94262034614744 82.95180722891565, 48.52089897617925 83.76506024096386, 48.940668875294136 84.57831325301206, 49.293575425774826 85.39156626506023, 49.61181375516935 86.20481927710843, 49.807437356750306 87.01807228915663, 50.0 87.83132530120481, 49.76773432838171 88.644578313253, 49.275339647446145 89.45783132530121, 46.60363957589332 90.2710843373494, 44.26297288154486 91.08433734939759, 41.701652604646355 91.8975903614458, 39.153889108753596 92.71084337349397, 37.89529536766213 93.52409638554217, 36.542716317953165 94.33734939759036, 35.07059021765289 95.15060240963855, 32.492826044984284 95.96385542168674, 27.442235722261316 96.77710843373494, 26.34655967561299 97.59036144578313, 23.598168875115803 98.40361445783132, 22.785779489214182 99.21686746987952, 20.778578024419257 100.03012048192771, 18.688697295552874 100.8433734939759, 15.655489843915321 101.6566265060241, 12.429136988437193 102.46987951807229, 10.19780839354818 103.28313253012048, 8.647623758947498 104.09638554216868, 7.051019443485935 104.90963855421687, 5.822716125563441 105.72289156626506, 4.148204408933777 106.53614457831326, 1.9289418468574495 107.34939759036145, 0.12367157051543431 108.16265060240964, 0.0 108.97590361445783, 2.223411077621342 109.78915662650603, 4.134147892760055 110.6024096385542, 6.059454664649263 111.41566265060241, 7.747358148288715 112.2289156626506, 8.388908149315737 113.04216867469879, 8.990960270151216 113.855421686747, 10.577457625815603 114.66867469879519, 13.48803018287042 115.48192771084337, 18.59114711296444 116.29518072289157, 20.541210716702636 117.10843373493977, 21.90528109631637 117.92168674698794, 23.143817337513763 118.73493975903614, 24.659567055254854 119.54819277108435, 25.779604737989608 120.36144578313252, 28.989417299716187 121.17469879518072, 30.06820158860904 121.98795180722892, 30.910236437646255 122.8012048192771, 31.789218579916877 123.6144578313253, 32.44059086332214 124.4277108433735, 33.28911386544793 125.24096385542168, 33.66487490076442 126.05421686746988, 34.60732921366955 126.86746987951808, 35.71677616546559 127.68072289156626, 34.61184234559295 128.49397590361446, 34.55333433129683 129.30722891566265, 35.15473649978351 130.12048192771084, 35.29595462838055 130.93373493975903, 35.67932012410175 131.74698795180723, 36.131297518932115 132.56024096385542, 36.76115896895661 133.3734939759036, 37.0833940706575 134.1867469879518, 36.944331659145185 135.0, 37.11808184121313" fill="none" stroke="#ff3a33" stroke-width="1.25"/>

</svg>