<?xml version="1.0" standalone="no"?>
<!DOCTYPE svg PUBLIC "-//W3C//DTD SVG 1.1//EN" "http://www.w3.org/Graphics/SVG/1.1/DTD/svg11.dtd">

<svg width="135" height="50" viewBox="0 0 135 50" preserveAspectRatio="none" 
  xmlns="http://www.w3.org/2000/svg"
  xmlns:xlink="http://www.w3.org/1999/xlink">


<polyline points="0.0, 5.680332813273099 0.8132530120481928, 6.641676861747923 1.6265060240963856, 5.725700803321534 2.439759036144578, 4.465209358323173 3.253012048192771, 3.833155630399687 4.066265060240964, 9.418870816980089 4.879518072289156, 7.197056473184202 5.692771084337349, 8.443361481127166 6.506024096385542, 10.68108219001627 7.319277108433735, 8.295929413327311 8.132530120481928, 11.908539154611034 8.94578313253012, 6.862907073241825 9.759036144578312, 7.111905915914235 10.572289156626507, 9.681681421758078 11.385542168674698, 10.596999117900543 12.198795180722891, 13.00303128357308 13.012048192771084, 13.794227344131368 13.825301204819276, 16.43132093394312 14.63855421686747, 18.31798890541489 15.451807228915662, 19.345889569672543 16.265060240963855, 22.28570740772511 17.07831325301205, 19.27474974552019 17.89156626506024, 21.09950765005072 18.704819277108435, 17.8842540831187 19.518072289156624, 20.860340764614964 20.33132530120482, 23.568454748034203 21.144578313253014, 23.859650750459043 21.957831325301203, 22.41205641642598 22.771084337349397, 24.240096109299294 23.58433734939759, 18.980995129460876 24.397590361445783, 9.64569862487328 25.210843373493976, 9.534604158799082 26.02409638554217, 9.085155960719836 26.837349397590362, 6.269393524643927 27.65060240963855, 9.074554383290227 28.46385542168675, 17.37830951155322 29.27710843373494, 15.252645933584812 30.09036144578313, 17.531963723899715 30.903614457831324, 12.381964091799992 31.71686746987952, 11.327235026806147 32.53012048192771, 15.18822588675151 33.3433734939759, 17.08226438644948 34.1566265060241, 18.059421006290762 34.96987951807229, 13.44879786487049 35.78313253012048, 8.889963857873255 36.596385542168676, 4.77558132436417 37.40963855421687, 5.145334981026684 38.22289156626506, 5.129883996267042 39.03614457831325, 3.879007997363012 39.84939759036145, 2.3637902544267453 40.66265060240964, 1.871093716593129 41.47590361445783, 1.8807379987192365 42.28915662650603, 3.0137874489253162 43.102409638554214, 0.0 43.91566265060241, 1.96203243647805 44.72891566265061, 3.249691462952145 45.54216867469879, 0.017134046678323748 46.355421686746986, 1.5551210254906622 47.16867469879518, 3.3298744033555656 47.98192771084337, 6.7387383353628625 48.795180722891565, 8.361775297460731 49.60843373493976, 9.807991534080076 50.42168674698795, 10.37132476793258 51.234939759036145, 13.588502830617315 52.04819277108434, 11.610672234503165 52.86144578313253, 11.649292229754634 53.674698795180724, 7.634886753390433 54.48795180722892, 11.117238844331952 55.3012048192771, 12.229115348945028 56.1144578313253, 12.867738971912415 56.9277108433735, 12.879800989488247 57.74096385542168, 12.893176523606087 58.55421686746988, 13.46022353224411 59.36746987951807, 12.611139230305458 60.18072289156626, 10.985398866077663 60.99397590361446, 11.155434559789024 61.80722891566265, 10.896241485651668 62.62048192771084, 11.239074314213479 63.43373493975904, 8.49590698813898 64.24698795180723, 9.654329317592229 65.06024096385542, 9.055337812252064 65.87349397590361, 8.25336877369823 66.6867469879518, 7.698305503460803 67.5, 8.00988681600594 68.3132530120482, 7.4153074146633635 69.12650602409639, 7.645022614937432 69.93975903614458, 9.893742051859707 70.75301204819277, 9.678569039392192 71.56626506024097, 9.400961170916553 72.37951807228916, 9.527319851133344 73.19277108433735, 7.224395874341666 74.00602409638554, 6.097911036548957 74.81927710843374, 6.9158270171862535 75.63253012048192, 7.41961550119442 76.44578313253012, 7.277826442913082 77.25903614457832, 7.699826658683888 78.0722891566265, 10.45450979849367 78.8855421686747, 10.057773756240692 79.6987951807229, 8.92022812437774 80.51204819277108, 9.061813158871939 81.32530120481928, 8.72795149648148 82.13855421686748, 8.812709757535425 82.95180722891565, 8.708628529580988 83.76506024096386, 8.692195380322032 84.57831325301206, 7.76643564653936 85.39156626506023, 6.609954587062197 86.20481927710843, 6.964383869897777 87.01807228915663, 8.300216778216516 87.83132530120481, 10.75705039899263 88.644578313253, 12.906759654496245 89.45783132530121, 22.095603886089176 90.2710843373494, 27.489706688942363 91.08433734939759, 29.55701824507798 91.8975903614458, 32.73942484684107 92.71084337349397, 30.301329815853045 93.52409638554217, 35.084088686213924 94.33734939759036, 36.54607828659166 95.15060240963855, 44.425390088241386 95.96385542168674, 44.518200549876475 96.77710843373494, 45.81508720370907 97.59036144578313, 43.502463036259805 98.40361445783132, 50.0 99.21686746987952, 46.378045648453046 100.03012048192771, 36.679465711090046 100.8433734939759, 37.111753629990716 101.6566265060241, 28.776001289899682 102.46987951807229, 32.824569574664324 103.28313253012048, 40.02963052488099 104.09638554216868, 42.230159517559244 104.90963855421687, 43.97786697923524 105.72289156626506, 40.93267803318324 106.53614457831326, 29.39481778711143 107.34939759036145, 29.860411603701593 108.16265060240964, 27.778553603955462 108.97590361445783, 26.62247918812874 109.78915662650603, 27.89360734994828 110.6024096385542, 28.39191065699088 111.41566265060241, 25.24712390077483 112.2289156626506, 23.74795574907899 113.04216867469879, 21.65323750655536 113.855421686747, 21.446531943691628 114.66867469879519, 23.172729606167294 115.48192771084337, 23.409238351277708 116.29518072289157, 23.265350569704545 117.10843373493977, 22.95069334254273 117.92168674698794, 23.3771600421657 118.73493975903614, 23.459255013025853 119.54819277108435, 24.51203142357568 120.36144578313252, 24.664066525934654 121.17469879518072, 24.030535436358353 121.98795180722892, 24.09192929734363 122.8012048192771, 26.995069855058528 123.6144578313253, 25.28584624494703 124.4277108433735, 28.626292302344293 125.24096385542168, 27.816984873845225 126.05421686746988, 34.67377626298742 126.86746987951808, 39.593208745552374 127.68072289156626, 35.58245846135503 128.49397590361446, 35.43864093160634 129.30722891566265, 33.00991670454115 130.12048192771084, 31.96563248423583 130.93373493975903, 31.931130132975323 131.74698795180723, 30.041164754107992 132.56024096385542, 30.221944791643995 133.3734939759036, 29.161388787400668 134.1867469879518, 26.089409669068907 135.0, 25.973937265352948" fill="none" stroke="#ff3a33" stroke-width="1.25"/>

</svg>